<svg xmlns="http://www.w3.org/2000/svg" viewBox="0 0 24 24" fill="currentColor"><g transform="translate(0,24) scale(1,-1)"><path d="M6 10.992Q5.568 10.992 5.28 11.292Q4.992 11.592 4.992 12Q4.992 12.408 5.292 12.708Q5.592 13.008 6 13.008Q6.408 13.008 6.708 12.708Q7.008 12.408 7.008 12Q7.008 11.592 6.708 11.292Q6.408 10.992 6 10.992ZM18 10.992Q17.568 10.992 17.28 11.292Q16.992 11.592 16.992 12Q16.992 12.408 17.292 12.708Q17.592 13.008 18 13.008Q18.408 13.008 18.708 12.708Q19.008 12.408 19.008 12Q19.008 11.592 18.708 11.292Q18.408 10.992 18 10.992ZM9.876 9.876Q9 10.752 9 12Q9 13.248 9.876 14.124Q10.752 15 12 15Q13.248 15 14.124 14.124Q15 13.248 15 12Q15 10.752 14.124 9.876Q13.248 9 12 9Q10.752 9 9.876 9.876ZM11.292 12.708Q10.992 12.408 10.992 12Q10.992 11.592 11.292 11.292Q11.592 10.992 12 10.992Q12.408 10.992 12.708 11.292Q13.008 11.592 13.008 12Q13.008 12.408 12.708 12.708Q12.408 13.008 12 13.008Q11.592 13.008 11.292 12.708ZM3.024 7.104Q3.216 7.008 4.008 7.008H20.88Q21 7.248 21 7.992Q21 16.68 20.976 16.896Q20.784 16.992 19.992 16.992H3.12Q3 16.752 3 16.008Q3 7.32 3.024 7.104ZM1.008 16.008V16.416Q1.008 17.184 1.08 17.544Q1.248 18.336 1.8 18.672Q2.304 19.008 4.008 19.008H19.992H20.424Q21.048 19.008 21.528 18.912Q22.32 18.744 22.656 18.192Q22.992 17.688 22.992 16.008V7.992V7.584Q22.992 6.816 22.92 6.456Q22.752 5.664 22.2 5.328Q21.696 4.992 19.992 4.992H4.008H3.576Q2.952 4.992 2.472 5.088Q1.68 5.256 1.344 5.808Q1.008 6.312 1.008 7.992Z"/></g></svg>