<svg xmlns="http://www.w3.org/2000/svg" viewBox="0 0 24 24" fill="currentColor"><g transform="translate(0,24) scale(1,-1)"><path d="M9.168 11.172Q7.992 12.336 7.992 13.992Q7.992 15.648 9.168 16.824Q10.344 18 12 18Q13.656 18 14.832 16.824Q16.008 15.648 16.008 13.992Q16.008 12.336 14.832 11.172Q13.656 10.008 12 10.008Q10.344 10.008 9.168 11.172ZM10.596 15.42Q10.008 14.832 10.008 13.992Q10.008 13.152 10.596 12.576Q11.184 12 12 12Q12.816 12 13.404 12.576Q13.992 13.152 13.992 13.992Q13.992 14.832 13.404 15.42Q12.816 16.008 12 16.008Q11.184 16.008 10.596 15.42ZM21 13.992Q21 12.144 20.16 10.152Q19.32 8.16 17.952 6.432Q16.584 4.704 15.48 3.564Q14.376 2.424 13.2 1.392Q12.672 1.008 12.024 1.008Q11.328 1.008 10.752 1.44Q7.8 3.936 5.664 6.984Q3 10.752 3 13.992Q3 17.712 5.64 20.352Q8.28 22.992 12 22.992Q15.72 22.992 18.36 20.352Q21 17.712 21 13.992ZM4.992 13.992Q4.992 11.448 7.296 8.136Q9.096 5.568 12 3Q13.2 4.056 14.34 5.256Q15.48 6.456 16.572 7.932Q17.664 9.408 18.336 11.004Q19.008 12.6 19.008 13.992Q19.008 16.896 16.956 18.948Q14.904 21 12 21Q9.096 21 7.044 18.948Q4.992 16.896 4.992 13.992Z"/></g></svg>