<svg xmlns="http://www.w3.org/2000/svg" viewBox="0 0 24 24" fill="currentColor"><path d="M6 4.992Q5.568 4.992 5.28 5.292Q4.992 5.592 4.992 6Q4.992 6.408 5.292 6.708Q5.592 7.008 6 7.008Q6.408 7.008 6.708 6.708Q7.008 6.408 7.008 6Q7.008 5.592 6.708 5.292Q6.408 4.992 6 4.992ZM6 16.992Q5.568 16.992 5.28 17.292Q4.992 17.592 4.992 18Q4.992 18.408 5.292 18.708Q5.592 19.008 6 19.008Q6.408 19.008 6.708 18.708Q7.008 18.408 7.008 18Q7.008 17.592 6.708 17.292Q6.408 16.992 6 16.992ZM3.024 3.12Q3.264 3 4.008 3Q20.664 3 20.88 3.024Q21 3.264 21 4.008Q21 8.664 20.976 8.88Q20.736 9 19.992 9Q3.336 9 3.12 8.976Q3 8.736 3 7.992Q3 3.336 3.024 3.12ZM1.008 7.992V8.424Q1.008 9.168 1.08 9.528Q1.248 10.32 1.8 10.656Q2.304 10.992 4.008 10.992H19.992Q21.672 10.992 22.2 10.656Q22.56 10.44 22.752 10.056Q22.992 9.6 22.992 7.992V4.008V3.576Q22.992 2.832 22.92 2.472Q22.752 1.68 22.2 1.344Q21.696 1.008 19.992 1.008H4.008H3.576Q2.832 1.008 2.472 1.08Q1.2 1.32 1.032 2.736Q1.008 3.072 1.008 7.992ZM3.024 15.12Q3.264 15 4.008 15Q20.664 15 20.88 15.024Q21 15.264 21 16.008Q21 20.664 20.976 20.88Q20.736 21 19.992 21Q3.336 21 3.12 20.976Q3 20.736 3 19.992Q3 15.336 3.024 15.12ZM1.008 19.992V20.424Q1.008 21.168 1.08 21.528Q1.248 22.32 1.8 22.656Q2.304 22.992 4.008 22.992H19.992H20.424Q21.168 22.992 21.528 22.92Q22.8 22.68 22.968 21.264Q22.992 20.928 22.992 16.008V15.576Q22.992 14.832 22.92 14.472Q22.752 13.68 22.2 13.344Q21.696 13.008 19.992 13.008H4.008H3.576Q2.832 13.008 2.472 13.08Q1.2 13.32 1.032 14.736Q1.008 15.072 1.008 19.992Z"/></svg>