<svg xmlns="http://www.w3.org/2000/svg" viewBox="0 0 24 24" fill="currentColor"><g transform="translate(0,24) scale(1,-1)"><path d="M13.992 4.008V6V7.488Q13.992 8.928 15.024 9.96Q16.056 10.992 17.496 10.992Q18.936 10.992 19.968 9.96Q21 8.928 21 7.488V6V4.008Q21 3.6 20.7 3.3Q20.4 3 19.992 3Q19.584 3 19.296 3.3Q19.008 3.6 19.008 4.008V4.992H16.008V4.008Q16.008 3.6 15.708 3.3Q15.408 3 15 3Q14.592 3 14.292 3.3Q13.992 3.6 13.992 4.008ZM15 21H19.992Q20.424 21 20.712 20.7Q21 20.4 21 19.992Q21 19.632 20.76 19.368L17.136 15H19.992Q20.4 15 20.7 14.7Q21 14.4 21 13.992Q21 13.584 20.7 13.296Q20.4 13.008 19.992 13.008H15Q14.568 13.008 14.28 13.308Q13.992 13.608 13.992 14.016Q13.992 14.376 14.232 14.64L17.856 19.008H15Q14.592 19.008 14.292 19.296Q13.992 19.584 13.992 19.992Q13.992 20.4 14.292 20.7Q14.592 21 15 21ZM7.992 19.992V6.408L10.296 8.712Q10.584 9 10.992 9Q11.424 9 11.712 8.688Q12 8.376 12 7.992Q12 7.584 11.712 7.296L7.704 3.288Q7.56 3.144 7.368 3.072Q7.2 3 7.008 3Q6.816 3 6.624 3.072Q6.504 3.12 6.312 3.264L6.288 3.288L2.304 7.296Q1.992 7.608 1.992 7.992Q1.992 8.424 2.304 8.712Q2.616 9 3 9Q3.408 9 3.696 8.712L6 6.408V19.992Q6 20.4 6.3 20.7Q6.6 21 7.008 21Q7.416 21 7.704 20.7Q7.992 20.4 7.992 19.992ZM19.008 7.008V7.488Q19.008 8.112 18.552 8.556Q18.096 9 17.496 9Q16.896 9 16.452 8.556Q16.008 8.112 16.008 7.488V7.008Z"/></g></svg>