<svg xmlns="http://www.w3.org/2000/svg" viewBox="0 0 24 24" fill="currentColor"><g transform="translate(0,24) scale(1,-1)"><path d="M15 9.504Q15 8.64 14.568 7.824L15.696 6.696Q16.008 6.384 16.008 6Q16.008 5.568 15.696 5.28Q15.384 4.992 15 4.992Q14.616 4.992 14.304 5.304L13.176 6.432Q12.36 6 11.496 6Q10.032 6 9.012 7.02Q7.992 8.04 7.992 9.504Q7.992 10.968 9.012 11.988Q10.032 13.008 11.496 13.008Q12.96 13.008 13.98 11.988Q15 10.968 15 9.504ZM10.44 10.56Q10.008 10.128 10.008 9.504Q10.008 8.88 10.44 8.436Q10.872 7.992 11.496 7.992Q12.12 7.992 12.564 8.436Q13.008 8.88 13.008 9.504Q13.008 10.128 12.564 10.56Q12.12 10.992 11.496 10.992Q10.872 10.992 10.44 10.56ZM6 1.008Q4.752 1.008 3.876 1.884Q3 2.76 3 4.008V19.992Q3 21.24 3.876 22.116Q4.752 22.992 6 22.992H13.992Q15.432 22.992 16.416 22.008L19.992 18.408Q21 17.4 21 16.008V4.008Q21 2.76 20.124 1.884Q19.248 1.008 18 1.008ZM6 3H18Q18.408 3 18.708 3.3Q19.008 3.6 19.008 4.008V15H15Q14.16 15 13.584 15.588Q13.008 16.176 13.008 16.992V21H6Q5.592 21 5.292 20.7Q4.992 20.4 4.992 19.992V4.008Q4.992 3.6 5.292 3.3Q5.592 3 6 3ZM18.576 16.992 15 20.592V16.992Z"/></g></svg>